<?xml version="1.0" standalone="no"?><!DOCTYPE svg PUBLIC "-//W3C//DTD SVG 1.1//EN" "http://www.w3.org/Graphics/SVG/1.1/DTD/svg11.dtd"><svg t="1740387712446" class="icon" viewBox="0 0 1024 1024" version="1.1" xmlns="http://www.w3.org/2000/svg" p-id="3602" xmlns:xlink="http://www.w3.org/1999/xlink" width="200" height="200"><path d="M128.9 158H898a30 30 0 0 0 0-60H128.9a30 30 0 0 0 0 60zM128.9 925.64H898a30 30 0 0 0 0-60H128.9a30 30 0 1 0 0 60zM128.9 416H573a32.16 32.16 0 0 0 0-64.32H128.9a32.16 32.16 0 0 0 0 64.32zM128.9 671.92H573a32.16 32.16 0 0 0 0-64.32H128.9a32.16 32.16 0 0 0 0 64.32zM923.37 523.21L728.72 664.49a14.34 14.34 0 0 1-22.72-11.6V370.33a14.34 14.34 0 0 1 22.76-11.6L923.37 500a14.33 14.33 0 0 1 0 23.21z" p-id="3603"></path></svg>